<?xml version="1.0" encoding="UTF-8" standalone="no"?>
<svg width="375px" height="667px" viewBox="0 0 375 667" version="1.1" xmlns="http://www.w3.org/2000/svg" xmlns:xlink="http://www.w3.org/1999/xlink" xmlns:sketch="http://www.bohemiancoding.com/sketch/ns">
    <!-- Generator: Sketch 3.3.2 (12043) - http://www.bohemiancoding.com/sketch -->
    <title>Create Issue</title>
    <desc>Created with Sketch.</desc>
    <defs>
        <filter x="-50%" y="-50%" width="200%" height="200%" filterUnits="objectBoundingBox" id="filter-1">
            <feOffset dx="0" dy="0.5" in="SourceAlpha" result="shadowOffsetOuter1"></feOffset>
            <feGaussianBlur stdDeviation="0" in="shadowOffsetOuter1" result="shadowBlurOuter1"></feGaussianBlur>
            <feColorMatrix values="0 0 0 0 0.698039216   0 0 0 0 0.698039216   0 0 0 0 0.698039216  0 0 0 0.7 0" in="shadowBlurOuter1" type="matrix" result="shadowMatrixOuter1"></feColorMatrix>
            <feMerge>
                <feMergeNode in="shadowMatrixOuter1"></feMergeNode>
                <feMergeNode in="SourceGraphic"></feMergeNode>
            </feMerge>
        </filter>
    </defs>
    <g id="Page-1" stroke="none" stroke-width="1" fill="none" fill-rule="evenodd" sketch:type="MSPage">
        <g id="Create-Issue" sketch:type="MSArtboardGroup">
            <g id="Status-Bar-Black" sketch:type="MSLayerGroup">
                <rect id="Background" fill="#014067" sketch:type="MSShapeGroup" x="0" y="0" width="375" height="20"></rect>
                <path d="M9.25,13 C10.7687831,13 12,11.7687831 12,10.25 C12,8.73121694 10.7687831,7.5 9.25,7.5 C7.73121694,7.5 6.5,8.73121694 6.5,10.25 C6.5,11.7687831 7.73121694,13 9.25,13 Z M16.25,13 C17.7687831,13 19,11.7687831 19,10.25 C19,8.73121694 17.7687831,7.5 16.25,7.5 C14.7312169,7.5 13.5,8.73121694 13.5,10.25 C13.5,11.7687831 14.7312169,13 16.25,13 Z M23.25,13 C24.7687831,13 26,11.7687831 26,10.25 C26,8.73121694 24.7687831,7.5 23.25,7.5 C21.7312169,7.5 20.5,8.73121694 20.5,10.25 C20.5,11.7687831 21.7312169,13 23.25,13 Z M30.25,13 C31.7687831,13 33,11.7687831 33,10.25 C33,8.73121694 31.7687831,7.5 30.25,7.5 C28.7312169,7.5 27.5,8.73121694 27.5,10.25 C27.5,11.7687831 28.7312169,13 30.25,13 Z M30.25,12.5 C31.4926407,12.5 32.5,11.4926407 32.5,10.25 C32.5,9.00735931 31.4926407,8 30.25,8 C29.0073593,8 28,9.00735931 28,10.25 C28,11.4926407 29.0073593,12.5 30.25,12.5 Z M37.25,13 C38.7687831,13 40,11.7687831 40,10.25 C40,8.73121694 38.7687831,7.5 37.25,7.5 C35.7312169,7.5 34.5,8.73121694 34.5,10.25 C34.5,11.7687831 35.7312169,13 37.25,13 Z M37.25,12.5 C38.4926407,12.5 39.5,11.4926407 39.5,10.25 C39.5,9.00735931 38.4926407,8 37.25,8 C36.0073593,8 35,9.00735931 35,10.25 C35,11.4926407 36.0073593,12.5 37.25,12.5 Z" id="Mobile-Signal" fill="#FFFFFF" sketch:type="MSShapeGroup"></path>
                <text id="Carrier" sketch:type="MSTextLayer" font-family="Helvetica Neue" font-size="12" font-weight="normal" letter-spacing="0.200000003" fill="#FFFFFF">
                    <tspan x="44" y="14.5">Sketch</tspan>
                </text>
                <path d="M96.1444208,12.4385043 C95.626374,11.8454456 94.8523616,11.4689119 93.987563,11.4689119 C93.1390073,11.4689119 92.3778594,11.8314341 91.8601652,12.4053177 L94.0225391,14.5 L96.1444208,12.4385043 Z M98.3234964,10.3214425 C97.2447794,9.19174563 95.7014387,8.48445596 93.987563,8.48445596 C92.2882723,8.48445596 90.7566264,9.17975893 89.6792698,10.2926936 L90.7692987,11.3486 C91.567205,10.5053708 92.713648,9.97668394 93.987563,9.97668394 C95.2768836,9.97668394 96.4356305,10.518235 97.2346215,11.3793293 L98.3234964,10.3214425 L98.3234964,10.3214425 Z M100.5,8.20687933 C98.8629578,6.53943672 96.5505699,5.5 93.987563,5.5 C91.4375103,5.5 89.1355496,6.52895605 87.5,8.18164431 L88.5895579,9.23709441 C89.9460798,7.85431655 91.8628921,6.99222798 93.987563,6.99222798 C96.1260026,6.99222798 98.0538809,7.86552609 99.4118698,9.26404272 L100.5,8.20687933 Z" id="Wi-Fi" fill="#FFFFFF" sketch:type="MSShapeGroup"></path>
                <text id="9:41-AM" sketch:type="MSTextLayer" font-family="Helvetica Neue" font-size="12" font-weight="normal" sketch:alignment="middle" letter-spacing="0.100000001" fill="#FFFFFF">
                    <tspan x="164.192" y="14.5">9:41 AM</tspan>
                </text>
                <path d="M346.493713,5.5 C345.668758,5.5 345,6.16802155 345,7.00530324 L345,13.4946968 C345,14.3260528 345.67338,15 346.493713,15 L366.006287,15 C366.831242,15 367.5,14.3319784 367.5,13.4946968 L367.5,7.00530324 C367.5,6.17394722 366.82662,5.5 366.006287,5.5 L346.493713,5.5 Z M368,8.5 L368,12 L368.75,12 C369.164214,12 369.5,11.6644053 369.5,11.25774 L369.5,9.24225998 C369.5,8.83232111 369.167101,8.5 368.75,8.5 L368,8.5 Z M346.508152,6 C345.951365,6 345.5,6.45699692 345.5,7.00844055 L345.5,13.4915594 C345.5,14.0485058 345.949058,14.5 346.508152,14.5 L365.991848,14.5 C366.548635,14.5 367,14.0430031 367,13.4915594 L367,7.00844055 C367,6.45149422 366.550942,6 365.991848,6 L346.508152,6 Z M346.506744,6.5 C346.226877,6.5 346,6.71637201 346,6.99209595 L346,13.5079041 C346,13.7796811 346.230225,14 346.506744,14 L365.993256,14 C366.273123,14 366.5,13.783628 366.5,13.5079041 L366.5,6.99209595 C366.5,6.72031886 366.269775,6.5 365.993256,6.5 L346.506744,6.5 Z" id="Battery" fill="#FFFFFF" sketch:type="MSShapeGroup"></path>
            </g>
            <g id="Navigation-Bar-–-No-Status" sketch:type="MSLayerGroup" transform="translate(0.000000, 20.000000)">
                <rect id="Bar" fill="#02568A" filter="url(#filter-1)" sketch:type="MSShapeGroup" x="0" y="0" width="375" height="44"></rect>
                <text id="Title" sketch:type="MSTextLayer" font-family="Helvetica Neue" font-size="17" font-weight="420" sketch:alignment="middle" fill="#FFFFFF">
                    <tspan x="138.3615" y="28">Create Issue</tspan>
                </text>
            </g>
            <g id="Back-Button" sketch:type="MSLayerGroup" transform="translate(17.000000, 29.000000)" fill="#FFFFFF">
                <path d="M0.5,11 L11,0.5 L13,2.5 L4.5,11 L13,19.5 L11,21.5 L0.5,11 Z" id="Back-Arrow" sketch:type="MSShapeGroup"></path>
            </g>
        </g>
    </g>
</svg>